<svg 
 xmlns="http://www.w3.org/2000/svg"
 xmlns:xlink="http://www.w3.org/1999/xlink"
 width="22px" height="19px">
<path fill-rule="evenodd"  fill="rgb(245, 169, 24)"
 d="M21.996,6.334 C21.959,5.730 21.213,5.261 19.721,4.901 C19.771,4.796 19.799,4.686 19.800,4.572 L19.800,2.111 L19.794,2.111 C19.662,0.060 10.906,-0.001 9.900,-0.001 C8.894,-0.001 0.138,0.060 0.006,2.111 L-0.000,2.111 L-0.000,2.156 L-0.000,2.156 L-0.000,2.156 L-0.000,4.573 C0.002,5.241 0.901,5.765 2.238,6.154 C2.220,6.213 2.209,6.272 2.205,6.334 L2.200,6.334 L2.200,6.378 L2.200,6.378 L2.200,6.378 L2.200,8.792 C0.759,9.147 0.039,9.611 0.004,10.203 L-0.000,10.203 L-0.000,10.249 L-0.000,10.249 L-0.000,10.249 L-0.000,12.665 C0.001,13.131 0.438,13.525 1.154,13.855 C1.127,13.927 1.110,13.999 1.105,14.074 L1.100,14.074 L1.100,14.119 L1.100,14.119 L1.100,14.119 L1.100,16.536 C1.103,17.707 3.849,18.433 6.900,18.773 C6.922,18.776 6.943,18.786 6.967,18.786 C6.973,18.786 6.979,18.783 6.986,18.782 C7.574,18.846 8.172,18.895 8.764,18.931 C8.776,18.932 8.787,18.937 8.800,18.937 C8.807,18.937 8.812,18.934 8.819,18.934 C9.570,18.978 10.309,18.999 11.000,18.999 C11.691,18.999 12.430,18.978 13.181,18.933 C13.187,18.934 13.193,18.937 13.200,18.937 C13.213,18.937 13.224,18.931 13.236,18.931 C13.828,18.895 14.425,18.846 15.013,18.782 C15.020,18.782 15.026,18.785 15.033,18.785 C15.057,18.785 15.078,18.775 15.100,18.772 C18.151,18.433 20.896,17.706 20.900,16.535 L20.900,14.074 L20.894,14.074 C20.868,13.642 20.485,13.283 19.728,12.981 C19.775,12.879 19.800,12.774 19.800,12.665 L19.800,10.364 C21.116,9.976 21.998,9.457 22.000,8.794 L22.000,6.334 L21.996,6.334 ZM19.027,12.779 L18.902,12.885 C18.709,13.047 18.389,13.211 17.966,13.370 L17.966,11.692 C18.403,11.546 18.774,11.385 19.067,11.208 L19.067,12.664 C19.067,12.699 19.052,12.739 19.027,12.779 ZM10.826,14.415 C10.772,14.415 10.719,14.416 10.665,14.417 C10.534,14.419 10.400,14.420 10.267,14.421 L10.267,12.664 C10.368,12.663 10.469,12.661 10.569,12.660 C10.589,12.659 10.608,12.659 10.628,12.659 C10.997,12.652 11.366,12.642 11.733,12.626 L11.733,14.382 C11.655,14.385 11.576,14.389 11.497,14.393 C11.276,14.402 11.053,14.409 10.826,14.415 ZM9.225,14.418 C9.057,14.416 8.890,14.412 8.724,14.408 C8.703,14.408 8.682,14.407 8.662,14.406 C8.462,14.399 8.264,14.391 8.067,14.382 L8.067,12.626 C8.434,12.642 8.803,12.652 9.173,12.659 C9.192,12.659 9.212,12.660 9.231,12.660 C9.332,12.662 9.432,12.663 9.533,12.664 L9.533,14.423 C9.462,14.422 9.391,14.422 9.320,14.421 C9.288,14.420 9.257,14.419 9.225,14.418 ZM2.602,13.618 C2.590,13.613 2.579,13.610 2.566,13.607 L2.566,11.907 C2.909,11.996 3.277,12.077 3.666,12.150 L3.666,13.868 C3.330,13.799 3.019,13.728 2.737,13.653 C2.692,13.640 2.646,13.629 2.602,13.618 ZM10.331,16.530 C10.431,16.532 10.532,16.534 10.633,16.534 L10.633,18.293 C10.127,18.289 9.637,18.275 9.166,18.253 L9.166,16.496 C9.534,16.512 9.903,16.523 10.272,16.529 C10.292,16.529 10.311,16.530 10.331,16.530 ZM11.727,16.529 C12.096,16.523 12.466,16.511 12.833,16.496 L12.833,18.253 C12.362,18.274 11.873,18.288 11.366,18.293 L11.366,16.534 C11.467,16.533 11.568,16.531 11.669,16.530 C11.688,16.530 11.708,16.529 11.727,16.529 ZM14.666,16.370 L14.666,18.118 C14.314,18.153 13.948,18.185 13.566,18.210 L13.566,16.455 C13.938,16.432 14.306,16.404 14.666,16.370 ZM15.400,16.295 C15.778,16.250 16.145,16.200 16.500,16.145 L16.500,17.873 C16.155,17.932 15.788,17.986 15.400,18.034 L15.400,16.295 ZM17.233,16.020 C17.623,15.947 17.991,15.865 18.333,15.777 L18.333,17.478 C18.006,17.567 17.639,17.654 17.233,17.739 L17.233,16.020 ZM4.766,16.020 L4.766,17.739 C4.361,17.654 3.993,17.567 3.666,17.478 L3.666,15.777 C4.009,15.865 4.377,15.947 4.766,16.020 ZM5.500,16.146 C5.855,16.201 6.222,16.251 6.600,16.295 L6.600,18.035 C6.212,17.987 5.845,17.932 5.500,17.873 L5.500,16.146 ZM7.333,16.370 C7.694,16.404 8.061,16.432 8.433,16.456 L8.433,18.211 C8.052,18.185 7.685,18.153 7.333,18.118 L7.333,16.370 ZM6.424,14.267 C6.386,14.263 6.349,14.259 6.312,14.255 C6.286,14.253 6.259,14.250 6.233,14.247 L6.233,12.501 C6.594,12.533 6.962,12.562 7.333,12.585 L7.333,14.340 C7.025,14.318 6.721,14.294 6.424,14.267 ZM5.500,12.424 L5.500,14.164 C5.112,14.116 4.745,14.062 4.400,14.003 L4.400,12.276 C4.755,12.330 5.122,12.381 5.500,12.424 ZM12.711,14.323 C12.630,14.329 12.549,14.334 12.467,14.340 L12.467,12.585 C12.838,12.562 13.206,12.533 13.566,12.500 L13.566,14.247 C13.340,14.270 13.108,14.291 12.870,14.310 C12.817,14.314 12.764,14.319 12.711,14.323 ZM14.300,14.164 L14.300,12.424 C14.678,12.381 15.045,12.330 15.400,12.276 L15.400,14.003 C15.054,14.062 14.687,14.116 14.300,14.164 ZM16.133,12.150 C16.523,12.076 16.891,11.996 17.233,11.907 L17.233,13.606 C16.906,13.697 16.539,13.785 16.133,13.867 L16.133,12.150 ZM11.119,10.543 C10.843,10.536 10.574,10.526 10.309,10.514 C10.295,10.513 10.280,10.512 10.267,10.511 L10.267,8.754 C10.634,8.772 11.003,8.782 11.373,8.789 C11.392,8.789 11.411,8.789 11.430,8.790 C11.531,8.792 11.632,8.793 11.733,8.794 L11.733,10.551 C11.554,10.549 11.374,10.549 11.200,10.545 C11.173,10.544 11.146,10.543 11.119,10.543 ZM2.566,5.514 L2.566,3.815 C2.909,3.902 3.277,3.984 3.666,4.058 L3.666,5.775 C3.622,5.766 3.575,5.757 3.531,5.747 C3.336,5.707 3.146,5.664 2.964,5.618 C2.825,5.584 2.693,5.549 2.566,5.514 ZM9.231,4.567 C9.332,4.569 9.432,4.570 9.533,4.571 L9.533,6.328 C9.040,6.323 8.549,6.312 8.066,6.289 L8.066,4.534 C8.434,4.550 8.803,4.560 9.172,4.567 C9.192,4.567 9.211,4.567 9.231,4.567 ZM10.627,4.567 C10.997,4.559 11.366,4.550 11.733,4.534 L11.733,6.289 C11.671,6.291 11.611,6.295 11.548,6.299 C11.543,6.299 11.538,6.299 11.533,6.299 C11.287,6.310 11.036,6.317 10.782,6.322 C10.742,6.323 10.702,6.323 10.663,6.324 C10.532,6.327 10.399,6.327 10.267,6.328 L10.267,4.571 C10.367,4.570 10.468,4.569 10.569,4.567 C10.588,4.567 10.608,4.567 10.627,4.567 ZM18.983,4.743 L18.972,4.741 L18.839,4.840 C18.645,4.986 18.348,5.132 17.966,5.272 L17.966,3.599 C18.403,3.453 18.774,3.292 19.067,3.115 L19.067,4.570 C19.067,4.624 19.037,4.682 18.983,4.743 ZM14.300,6.069 L14.300,4.331 C14.678,4.288 15.045,4.238 15.400,4.182 L15.400,5.908 C15.052,5.966 14.686,6.021 14.300,6.069 ZM16.133,5.773 L16.133,4.058 C16.523,3.984 16.891,3.902 17.233,3.815 L17.233,5.510 C16.905,5.602 16.535,5.690 16.133,5.773 ZM13.566,4.407 L13.566,6.153 C13.212,6.188 12.846,6.220 12.467,6.246 L12.467,4.492 C12.838,4.469 13.206,4.441 13.566,4.407 ZM6.233,6.154 L6.233,4.407 C6.594,4.441 6.962,4.469 7.333,4.492 L7.333,6.244 C6.960,6.219 6.592,6.189 6.233,6.154 ZM5.500,4.331 L5.500,6.070 C5.427,6.060 5.352,6.053 5.280,6.044 C5.233,6.037 5.188,6.031 5.142,6.025 C4.930,5.995 4.723,5.964 4.520,5.930 C4.479,5.925 4.440,5.918 4.400,5.911 L4.400,4.183 C4.755,4.238 5.122,4.289 5.500,4.331 ZM9.442,10.464 C9.393,10.461 9.343,10.456 9.294,10.453 C9.059,10.434 8.830,10.416 8.606,10.394 C8.558,10.389 8.510,10.384 8.462,10.380 C8.453,10.379 8.443,10.377 8.433,10.377 L8.433,8.630 C8.794,8.664 9.161,8.692 9.533,8.715 L9.533,10.469 C9.504,10.466 9.472,10.465 9.442,10.464 ZM7.020,10.201 C6.875,10.178 6.738,10.154 6.600,10.131 L6.600,8.405 C6.955,8.461 7.322,8.510 7.700,8.554 L7.700,10.295 C7.475,10.266 7.256,10.236 7.045,10.204 C7.037,10.203 7.028,10.202 7.020,10.201 ZM5.866,8.279 L5.866,9.993 C5.461,9.911 5.094,9.822 4.766,9.729 L4.766,8.037 C5.109,8.125 5.477,8.206 5.866,8.279 ZM4.033,7.821 L4.033,9.493 C3.457,9.279 3.085,9.061 2.964,8.867 L2.939,8.828 C2.937,8.817 2.934,8.805 2.933,8.794 L2.933,7.337 C3.226,7.514 3.597,7.676 4.033,7.821 ZM12.827,8.789 C13.196,8.782 13.566,8.771 13.933,8.754 L13.933,10.510 C13.451,10.533 12.961,10.546 12.467,10.550 L12.467,8.794 C12.567,8.793 12.668,8.792 12.769,8.790 C12.789,8.789 12.808,8.789 12.827,8.789 ZM17.566,10.139 C17.405,10.166 17.242,10.192 17.076,10.216 C16.980,10.230 16.882,10.244 16.784,10.257 C16.691,10.269 16.594,10.281 16.500,10.292 L16.500,8.553 C16.878,8.510 17.245,8.461 17.600,8.405 L17.600,10.132 C17.589,10.134 17.577,10.137 17.566,10.139 ZM15.083,10.439 C14.946,10.450 14.805,10.456 14.666,10.466 L14.666,8.715 C15.038,8.692 15.406,8.664 15.767,8.630 L15.767,10.376 C15.553,10.397 15.341,10.418 15.122,10.435 C15.109,10.436 15.096,10.438 15.083,10.439 ZM19.273,9.778 C19.091,9.828 18.897,9.873 18.700,9.918 C18.609,9.938 18.516,9.960 18.420,9.980 C18.392,9.985 18.362,9.990 18.333,9.997 L18.333,8.280 C18.723,8.206 19.091,8.126 19.434,8.037 L19.434,9.737 C19.381,9.751 19.328,9.765 19.273,9.778 ZM21.262,6.355 C21.229,6.594 20.664,6.912 19.657,7.211 L19.657,7.211 C18.360,7.596 16.330,7.947 13.758,8.057 C13.626,8.062 13.495,8.068 13.360,8.072 C13.251,8.075 13.141,8.078 13.029,8.081 C12.725,8.088 12.417,8.091 12.100,8.091 C11.782,8.091 11.474,8.088 11.171,8.080 C11.059,8.078 10.949,8.074 10.839,8.071 C10.705,8.068 10.573,8.062 10.442,8.057 C7.870,7.947 5.839,7.596 4.542,7.211 L4.542,7.211 C3.543,6.914 2.980,6.598 2.938,6.361 C2.940,6.355 2.940,6.349 2.945,6.341 C2.969,6.346 2.997,6.351 3.023,6.358 C3.166,6.390 3.313,6.422 3.463,6.452 C4.191,6.603 4.999,6.725 5.859,6.820 C5.862,6.820 5.864,6.822 5.866,6.822 C5.867,6.822 5.868,6.821 5.868,6.821 C6.454,6.886 7.062,6.936 7.686,6.971 C7.691,6.971 7.695,6.973 7.700,6.973 C7.702,6.973 7.704,6.972 7.707,6.972 C8.156,6.997 8.611,7.016 9.072,7.026 C9.354,7.033 9.630,7.036 9.900,7.036 C10.092,7.036 10.290,7.034 10.489,7.030 C13.153,6.991 15.622,6.688 17.340,6.217 C17.419,6.194 17.497,6.173 17.573,6.151 C17.620,6.136 17.667,6.123 17.712,6.110 C17.845,6.069 17.972,6.027 18.095,5.983 C18.116,5.976 18.137,5.968 18.158,5.960 C18.262,5.923 18.361,5.883 18.457,5.844 C18.484,5.832 18.512,5.821 18.539,5.809 C18.641,5.765 18.739,5.721 18.830,5.674 C18.871,5.653 18.907,5.631 18.945,5.610 C18.989,5.585 19.033,5.561 19.074,5.536 C19.097,5.523 19.124,5.509 19.146,5.494 C20.788,5.837 21.221,6.210 21.262,6.355 ZM9.900,0.703 C15.946,0.703 19.004,1.616 19.061,2.140 C19.017,2.379 18.454,2.693 17.457,2.988 L17.457,2.988 C16.160,3.373 14.130,3.725 11.558,3.834 C11.426,3.839 11.295,3.845 11.160,3.849 C11.051,3.852 10.941,3.856 10.829,3.859 C10.525,3.865 10.217,3.869 9.900,3.869 C9.582,3.869 9.274,3.865 8.971,3.859 C8.859,3.856 8.749,3.852 8.639,3.849 C8.505,3.845 8.374,3.839 8.242,3.834 C5.670,3.725 3.640,3.373 2.342,2.988 L2.342,2.988 C1.345,2.693 0.783,2.379 0.739,2.140 C0.796,1.616 3.854,0.703 9.900,0.703 ZM0.733,4.572 L0.733,3.115 C1.026,3.292 1.397,3.453 1.833,3.599 L1.833,5.284 C1.120,5.028 0.734,4.770 0.733,4.572 ZM2.509,9.442 C2.515,9.447 2.523,9.452 2.529,9.457 C3.031,9.944 4.070,10.325 5.364,10.612 C5.394,10.617 5.425,10.624 5.456,10.630 C5.551,10.651 5.647,10.671 5.744,10.691 C6.933,10.933 8.351,11.109 9.897,11.196 C9.898,11.196 9.899,11.196 9.900,11.196 C9.900,11.196 9.901,11.196 9.901,11.196 C10.398,11.223 10.905,11.243 11.424,11.252 C11.653,11.255 11.879,11.259 12.100,11.259 C12.353,11.259 12.612,11.255 12.877,11.251 C13.356,11.240 13.829,11.221 14.295,11.196 C14.296,11.196 14.298,11.196 14.300,11.196 C14.303,11.196 14.306,11.195 14.309,11.195 C15.859,11.107 17.312,10.930 18.542,10.675 C18.276,10.809 17.911,10.947 17.457,11.081 L17.457,11.081 C16.088,11.487 13.901,11.857 11.121,11.942 C11.038,11.945 10.957,11.948 10.873,11.950 C10.783,11.952 10.692,11.953 10.601,11.955 C10.370,11.959 10.138,11.962 9.900,11.962 C9.582,11.962 9.274,11.958 8.971,11.951 C8.859,11.949 8.749,11.945 8.639,11.941 C8.505,11.938 8.374,11.932 8.242,11.928 C5.670,11.818 3.640,11.466 2.342,11.080 L2.342,11.080 C1.334,10.781 0.770,10.464 0.737,10.225 C0.778,10.093 1.149,9.761 2.509,9.442 ZM0.733,12.665 L0.733,11.208 C1.026,11.385 1.397,11.545 1.833,11.692 L1.833,13.370 L1.624,13.291 L1.619,13.296 C1.044,13.068 0.734,12.842 0.733,12.665 ZM1.833,16.535 L1.833,15.078 C2.126,15.256 2.497,15.417 2.933,15.562 L2.933,17.247 C2.220,16.990 1.834,16.733 1.833,16.535 ZM19.067,17.247 L19.067,15.562 C19.502,15.417 19.874,15.256 20.167,15.078 L20.167,16.534 C20.166,16.733 19.780,16.989 19.067,17.247 ZM20.162,14.100 C20.122,14.339 19.559,14.655 18.557,14.952 L18.557,14.952 C17.260,15.336 15.230,15.688 12.658,15.797 C12.526,15.802 12.395,15.809 12.261,15.813 C12.151,15.816 12.041,15.819 11.929,15.822 C11.626,15.829 11.317,15.833 11.000,15.833 C10.682,15.833 10.374,15.829 10.070,15.822 C9.960,15.819 9.851,15.816 9.742,15.812 C9.607,15.808 9.475,15.801 9.342,15.797 C6.770,15.688 4.740,15.335 3.443,14.951 L3.443,14.951 C2.473,14.664 1.912,14.358 1.842,14.124 C1.951,14.159 2.065,14.195 2.181,14.229 C2.193,14.234 2.204,14.237 2.216,14.239 C2.315,14.269 2.416,14.297 2.520,14.324 C2.559,14.334 2.599,14.346 2.639,14.356 C2.697,14.372 2.757,14.385 2.818,14.401 C4.153,14.729 5.858,14.961 7.698,15.066 C7.699,15.066 7.699,15.066 7.700,15.066 C7.700,15.066 7.701,15.066 7.701,15.066 C8.269,15.098 8.850,15.119 9.436,15.124 C9.592,15.128 9.748,15.129 9.900,15.129 C10.102,15.129 10.309,15.127 10.518,15.123 C11.053,15.115 11.581,15.096 12.097,15.066 C12.098,15.066 12.099,15.066 12.100,15.066 C12.102,15.066 12.103,15.066 12.105,15.066 C12.734,15.029 13.342,14.978 13.927,14.913 C13.929,14.913 13.931,14.915 13.933,14.915 C13.942,14.915 13.948,14.910 13.956,14.910 C14.608,14.838 15.225,14.749 15.798,14.646 C15.916,14.625 16.032,14.604 16.148,14.582 C16.173,14.577 16.199,14.572 16.225,14.566 C17.307,14.353 18.245,14.077 18.888,13.735 C18.923,13.716 18.956,13.697 18.989,13.679 C19.030,13.655 19.069,13.632 19.107,13.608 C19.142,13.586 19.182,13.565 19.215,13.543 C19.938,13.791 20.138,14.013 20.162,14.100 ZM20.167,9.506 L20.167,7.822 C20.602,7.676 20.974,7.514 21.267,7.337 L21.267,8.794 C21.266,8.992 20.880,9.249 20.167,9.506 Z"/>
</svg>