<svg 
 xmlns="http://www.w3.org/2000/svg"
 xmlns:xlink="http://www.w3.org/1999/xlink"
 width="23px" height="19px">
<path fill-rule="evenodd"  fill="rgb(224, 175, 13)"
 d="M21.297,13.452 L19.783,13.452 L19.783,15.595 C19.783,15.916 19.531,16.151 19.237,16.151 C19.090,16.151 18.964,16.087 18.858,15.980 L16.398,13.452 L5.529,13.452 C4.604,13.452 3.826,12.681 3.826,11.717 L3.826,1.735 C3.826,0.793 4.583,-0.000 5.529,-0.000 L21.297,-0.000 C22.222,-0.000 23.000,0.772 23.000,1.735 L23.000,11.717 C23.000,12.659 22.243,13.452 21.297,13.452 ZM7.947,5.377 C7.085,5.377 6.370,6.105 6.370,6.984 C6.370,7.861 7.085,8.590 7.947,8.590 C8.830,8.590 9.524,7.861 9.524,6.984 C9.524,6.105 8.809,5.377 7.947,5.377 ZM13.476,5.377 C12.614,5.377 11.899,6.105 11.899,6.984 C11.899,7.861 12.614,8.590 13.476,8.590 C14.338,8.590 15.053,7.861 15.053,6.984 C15.053,6.105 14.338,5.377 13.476,5.377 ZM18.984,5.377 C18.122,5.377 17.408,6.105 17.408,6.984 C17.408,7.861 18.122,8.590 18.984,8.590 C19.846,8.590 20.561,7.861 20.561,6.984 C20.561,6.105 19.846,5.377 18.984,5.377 ZM5.529,14.480 L12.614,14.480 L12.614,16.108 C12.614,16.729 12.110,17.244 11.500,17.244 L4.352,17.244 L2.733,18.893 C2.670,18.958 2.586,19.000 2.481,19.000 C2.292,19.000 2.123,18.829 2.123,18.637 L2.123,17.223 L1.135,17.223 C0.504,17.223 0.000,16.708 0.021,16.044 L0.021,9.490 C0.021,8.868 0.526,8.354 1.135,8.354 L2.859,8.354 L2.859,11.760 C2.859,13.259 4.058,14.480 5.529,14.480 Z"/>
</svg>