<svg 
 xmlns="http://www.w3.org/2000/svg"
 xmlns:xlink="http://www.w3.org/1999/xlink"
 width="20px" height="21px">
<path fill-rule="evenodd"  fill="rgb(224, 175, 13)"
 d="M16.154,21.000 C14.033,21.000 12.308,19.318 12.308,17.252 C12.308,15.185 14.033,13.504 16.154,13.504 C18.275,13.504 20.000,15.185 20.000,17.252 C20.000,19.318 18.275,21.000 16.154,21.000 ZM12.774,9.103 L14.625,12.552 C14.706,12.704 14.633,12.889 14.469,12.951 C14.122,13.080 13.796,13.249 13.494,13.450 C13.349,13.547 13.150,13.498 13.068,13.347 L11.218,9.898 C9.925,10.306 8.489,10.208 7.245,9.583 L6.320,10.786 C6.212,10.924 6.005,10.937 5.878,10.815 C5.620,10.566 5.328,10.351 5.008,10.178 C4.852,10.094 4.808,9.896 4.915,9.757 L5.841,8.554 C2.713,5.330 5.068,0.000 9.621,0.000 C14.584,0.000 16.718,6.165 12.774,9.103 ZM6.174,13.557 C6.174,15.216 4.789,16.566 3.087,16.566 C1.385,16.566 0.000,15.216 0.000,13.557 C0.000,11.897 1.385,10.548 3.087,10.548 C4.789,10.548 6.174,11.897 6.174,13.557 Z"/>
</svg>