<svg 
 xmlns="http://www.w3.org/2000/svg"
 xmlns:xlink="http://www.w3.org/1999/xlink"
 width="19px" height="23px">
<path fill-rule="evenodd"  fill="rgb(137, 117, 90)"
 d="M18.769,20.419 C18.722,20.541 18.635,20.649 18.528,20.718 C18.390,20.808 15.067,22.994 9.507,22.994 C3.947,22.994 0.624,20.812 0.485,20.718 C0.374,20.649 0.291,20.541 0.245,20.419 C-0.000,19.777 0.004,18.507 0.009,18.259 C0.009,18.255 0.009,18.250 0.009,18.247 C0.014,18.209 0.014,18.170 0.014,18.128 C0.041,17.187 0.102,14.982 2.107,14.273 C2.121,14.269 2.135,14.263 2.154,14.262 C4.247,13.708 5.971,12.473 5.990,12.457 C6.272,12.254 6.660,12.325 6.859,12.617 C7.057,12.908 6.988,13.307 6.706,13.508 C6.627,13.562 4.788,14.886 2.486,15.497 C1.409,15.895 1.289,17.080 1.257,18.163 C1.257,18.209 1.252,18.247 1.252,18.284 C1.243,18.710 1.275,19.375 1.349,19.755 C2.103,20.194 5.056,21.710 9.502,21.710 C13.967,21.710 16.901,20.200 17.650,19.759 C17.724,19.379 17.752,18.718 17.747,18.290 C17.743,18.250 17.743,18.211 17.743,18.170 C17.710,17.084 17.590,15.899 16.513,15.500 C14.212,14.892 12.372,13.571 12.294,13.514 C12.012,13.310 11.943,12.911 12.141,12.621 C12.340,12.329 12.728,12.260 13.010,12.463 C13.028,12.478 14.762,13.714 16.846,14.263 C16.860,14.269 16.878,14.273 16.892,14.277 C18.898,14.982 18.958,17.187 18.986,18.129 C18.986,18.174 18.991,18.211 18.991,18.250 C18.991,18.255 18.991,18.259 18.991,18.265 C18.995,18.513 19.000,19.785 18.769,20.419 ZM9.567,12.389 C9.553,12.389 9.535,12.389 9.521,12.389 C9.511,12.389 9.502,12.389 9.493,12.389 C9.465,12.389 9.442,12.389 9.419,12.389 C8.065,12.362 6.969,11.872 6.165,10.934 C4.386,8.867 4.682,5.323 4.714,4.985 C4.830,2.429 6.013,1.214 6.983,0.646 C7.949,0.082 8.957,-0.006 9.470,-0.006 L9.498,-0.006 C9.502,-0.006 9.511,-0.006 9.516,-0.006 L9.548,-0.006 C10.482,0.014 11.319,0.241 12.035,0.667 C12.996,1.234 14.161,2.446 14.276,4.985 C14.309,5.323 14.605,8.867 12.825,10.934 C12.016,11.872 10.921,12.362 9.567,12.389 ZM13.038,5.104 C13.033,5.094 13.033,5.078 13.033,5.066 C12.890,1.834 10.768,1.311 9.521,1.285 C9.507,1.285 9.493,1.285 9.484,1.285 L9.465,1.285 C8.458,1.285 6.105,1.652 5.953,5.066 C5.953,5.076 5.948,5.088 5.948,5.104 C5.943,5.130 5.629,8.384 7.094,10.080 C7.672,10.757 8.453,11.094 9.470,11.101 C9.479,11.101 9.484,11.101 9.493,11.101 C9.502,11.101 9.507,11.101 9.516,11.101 C10.537,11.094 11.314,10.757 11.896,10.080 C13.366,8.378 13.042,5.138 13.038,5.104 Z"/>
</svg>