<svg 
 xmlns="http://www.w3.org/2000/svg"
 xmlns:xlink="http://www.w3.org/1999/xlink"
 width="21px" height="24px">
<path fill-rule="evenodd"  fill="rgb(137, 117, 90)"
 d="M17.955,15.068 C17.531,14.508 16.979,14.165 16.358,14.087 C15.743,14.016 15.120,14.205 14.552,14.650 L12.777,16.028 C12.655,15.940 12.533,15.856 12.416,15.778 C12.247,15.666 12.087,15.560 11.953,15.450 C10.588,14.335 9.392,12.949 8.295,11.211 C7.767,10.348 7.428,9.630 7.206,8.923 C7.662,8.600 8.091,8.257 8.507,7.929 C8.664,7.807 8.822,7.677 8.980,7.556 C10.160,6.637 10.327,5.280 9.405,4.108 L8.206,2.579 C8.070,2.405 7.930,2.228 7.799,2.050 C7.537,1.702 7.261,1.345 6.973,1.007 C6.546,0.468 5.997,0.142 5.387,0.069 C4.776,-0.007 4.154,0.177 3.595,0.592 C3.589,0.598 3.589,0.598 3.583,0.601 L1.671,2.105 C0.952,2.662 0.490,3.395 0.299,4.288 C-0.000,5.728 0.263,7.137 0.484,8.067 C1.026,10.346 1.988,12.509 3.528,14.893 C5.399,17.770 7.783,20.149 10.617,21.970 C11.701,22.654 13.158,23.486 14.861,23.803 C14.965,23.819 15.075,23.838 15.175,23.851 C16.331,23.993 17.353,23.701 18.215,22.968 C18.221,22.961 18.232,22.956 18.238,22.945 C18.537,22.666 18.873,22.416 19.225,22.153 C19.466,21.975 19.712,21.786 19.955,21.589 C20.514,21.134 20.848,20.570 20.924,19.957 C21.000,19.337 20.808,18.711 20.364,18.150 L17.955,15.068 ZM19.099,20.539 C19.094,20.539 19.094,20.540 19.099,20.539 C18.878,20.720 18.655,20.890 18.414,21.071 C18.050,21.340 17.680,21.624 17.325,21.950 C16.753,22.428 16.126,22.606 15.345,22.511 C15.270,22.501 15.190,22.493 15.116,22.481 C13.641,22.200 12.331,21.454 11.356,20.835 C8.692,19.124 6.443,16.877 4.679,14.170 C3.225,11.911 2.318,9.880 1.813,7.753 C1.500,6.452 1.449,5.466 1.637,4.563 C1.759,3.986 2.044,3.528 2.510,3.166 L4.426,1.677 C4.700,1.476 4.975,1.386 5.231,1.412 C5.546,1.453 5.778,1.675 5.918,1.852 C5.923,1.860 5.927,1.866 5.931,1.872 C6.202,2.191 6.456,2.521 6.722,2.873 C6.858,3.052 6.998,3.231 7.138,3.415 L8.337,4.941 C8.802,5.534 8.742,6.025 8.146,6.486 C7.983,6.615 7.825,6.743 7.663,6.864 C7.190,7.239 6.740,7.591 6.257,7.929 C6.246,7.934 6.235,7.936 6.229,7.946 C5.745,8.323 5.774,8.752 5.829,9.048 C5.832,9.066 5.835,9.080 5.838,9.095 C6.088,9.997 6.489,10.864 7.131,11.917 L7.136,11.922 C8.308,13.791 9.601,15.291 11.083,16.495 C11.272,16.651 11.470,16.783 11.657,16.905 C11.827,17.019 11.986,17.123 12.120,17.228 C12.139,17.241 12.157,17.261 12.176,17.272 C12.336,17.379 12.491,17.436 12.656,17.459 C13.072,17.512 13.364,17.280 13.459,17.206 L15.381,15.712 C15.572,15.560 15.868,15.394 16.183,15.429 C16.493,15.467 16.724,15.693 16.859,15.882 C16.863,15.885 16.863,15.885 16.868,15.888 L19.287,18.977 C19.739,19.549 19.675,20.073 19.099,20.539 Z"/>
</svg>