<svg xmlns="http://www.w3.org/2000/svg" xmlns:xlink="http://www.w3.org/1999/xlink" width="75" height="67" viewBox="0 0 75 67"><defs><path id="fxlza" d="M1317.525 3268.927c-5.557 7.178-11.373 14.097-17.06 21.144-4.394 5.352-8.271 11.225-13.053 16.445-2.714 3.002-7.367 8.484-11.89 8.222-3.748-.13-6.98-2.87-9.435-5.48-5.816-6.134-13.7-15.793-13.958-24.8-.129-6.917 6.075-4.83 9.823-1.957 5.17 4.046 9.176 9.006 13.828 13.573 2.068-3.915 5.428-7.309 8.53-10.441 5.428-5.612 10.34-11.354 15.638-17.098 4.782-5.22 9.047-10.963 14.087-15.922 2.198-2.089 5.946-5.614 9.306-3.786 8.659 4.698-2.326 15.662-5.816 20.1zm-61.648 14.618c.517.261.905.39 1.422.522.258-.131.388-.131.517-.131-.905-.521-1.551-.652-1.939-.39z"/></defs><g><g transform="translate(-1252 -3248)"><use fill="#e4f2f6" xlink:href="#fxlza"/></g></g></svg>