<svg xmlns="http://www.w3.org/2000/svg" xmlns:xlink="http://www.w3.org/1999/xlink" width="26" height="22.62" viewBox="0 0 26 22.62">
  <metadata><?xpacket begin="﻿" id="W5M0MpCehiHzreSzNTczkc9d"?>
<x:xmpmeta xmlns:x="adobe:ns:meta/" x:xmptk="Adobe XMP Core 5.6-c138 79.159824, 2016/09/14-01:09:01        ">
   <rdf:RDF xmlns:rdf="http://www.w3.org/1999/02/22-rdf-syntax-ns#">
      <rdf:Description rdf:about=""/>
   </rdf:RDF>
</x:xmpmeta>
                                                                                                    
                                                                                                    
                                                                                                    
                                                                                                    
                                                                                                    
                                                                                                    
                                                                                                    
                                                                                                    
                                                                                                    
                                                                                                    
                                                                                                    
                                                                                                    
                                                                                                    
                                                                                                    
                                                                                                    
                                                                                                    
                                                                                                    
                                                                                                    
                                                                                                    
                                                                                                    
                           
<?xpacket end="w"?></metadata>
<defs>
    <style>
      .cls-1 {
        fill: #fff;
        fill-rule: evenodd;
        filter: url(#filter);
      }
    </style>
    <filter id="filter" x="1601" y="7471.38" width="26" height="22.62" filterUnits="userSpaceOnUse">
      <feOffset result="offset" dx="-0.139" dy="0.99" in="SourceAlpha"/>
      <feGaussianBlur result="blur" stdDeviation="1.414"/>
      <feFlood result="flood" flood-opacity="0.2"/>
      <feComposite result="composite" operator="in" in2="blur"/>
      <feBlend result="blend" in="SourceGraphic"/>
      <feFlood result="flood-2" flood-color="#fff"/>
      <feComposite result="composite-2" operator="in" in2="SourceGraphic"/>
      <feBlend result="blend-2" in2="blend"/>
    </filter>
  </defs>
  <path id="Forma_1_copy_5" data-name="Forma 1 copy 5" class="cls-1" d="M1623.4,7471.54c-1.01-.54-2.13.5-2.79,1.11-1.51,1.46-2.79,3.15-4.23,4.68-1.59,1.69-3.06,3.38-4.69,5.03a13.892,13.892,0,0,0-2.56,3.07,50.352,50.352,0,0,0-4.14-3.99c-1.13-.84-2.99-1.46-2.95.58,0.08,2.65,2.44,5.49,4.19,7.29a4.4,4.4,0,0,0,2.83,1.61c1.35,0.08,2.75-1.53,3.56-2.41,1.44-1.54,2.6-3.27,3.92-4.84,1.71-2.07,3.45-4.11,5.12-6.22C1622.7,7476.15,1626,7472.92,1623.4,7471.54Zm-19.66,10.32a0.292,0.292,0,0,0-.15.04,1.837,1.837,0,0,1-.43-0.15h0A0.594,0.594,0,0,1,1603.74,7481.86Z" transform="translate(-1601 -7471.38)"/>
</svg>
