<svg xmlns="http://www.w3.org/2000/svg" xmlns:xlink="http://www.w3.org/1999/xlink" width="20" height="21.16" viewBox="0 0 20 21.16">
  <metadata><?xpacket begin="﻿" id="W5M0MpCehiHzreSzNTczkc9d"?>
<x:xmpmeta xmlns:x="adobe:ns:meta/" x:xmptk="Adobe XMP Core 5.6-c138 79.159824, 2016/09/14-01:09:01        ">
   <rdf:RDF xmlns:rdf="http://www.w3.org/1999/02/22-rdf-syntax-ns#">
      <rdf:Description rdf:about=""/>
   </rdf:RDF>
</x:xmpmeta>
                                                                                                    
                                                                                                    
                                                                                                    
                                                                                                    
                                                                                                    
                                                                                                    
                                                                                                    
                                                                                                    
                                                                                                    
                                                                                                    
                                                                                                    
                                                                                                    
                                                                                                    
                                                                                                    
                                                                                                    
                                                                                                    
                                                                                                    
                                                                                                    
                                                                                                    
                                                                                                    
                           
<?xpacket end="w"?></metadata>
<defs>
    <style>
      .cls-1 {
        fill: #fff;
        fill-rule: evenodd;
        filter: url(#filter);
      }
    </style>
    <filter id="filter" x="982" y="7471.84" width="20" height="21.16" filterUnits="userSpaceOnUse">
      <feOffset result="offset" dx="-0.139" dy="0.99" in="SourceAlpha"/>
      <feGaussianBlur result="blur" stdDeviation="1.414"/>
      <feFlood result="flood" flood-opacity="0.2"/>
      <feComposite result="composite" operator="in" in2="blur"/>
      <feBlend result="blend" in="SourceGraphic"/>
      <feFlood result="flood-2" flood-color="#fff"/>
      <feComposite result="composite-2" operator="in" in2="SourceGraphic"/>
      <feBlend result="blend-2" in2="blend"/>
    </filter>
  </defs>
  <path id="Forma_1" data-name="Forma 1" class="cls-1" d="M998.3,7484.95c-1.164-1.42-2.661-2.5-3.859-3.88-0.133-.14-0.233-0.28-0.366-0.41,1.131-1.39,2.329-2.77,3.493-4.16,0.633-.72,1.4-2.49.167-3.15-1.3-.69-2.529.25-3.527,1.08a25,25,0,0,0-2.861,2.83,43.54,43.54,0,0,0-3.06-3.39c-0.8-.76-2.928-2.87-4.126-1.69-1.164,1.07-.232,2.8.666,3.7a0.361,0.361,0,0,0,.366.1,28.339,28.339,0,0,1,3.892,4.12c-1.53,2.08-2.928,4.26-4.458,6.27a0.291,0.291,0,0,0-.066.24,1.623,1.623,0,0,0-.4,2.21c1.065,1.18,2.429.49,3.46-.38a25.862,25.862,0,0,0,4.259-4.95,22.869,22.869,0,0,0,3.227,3.15c0.964,0.76,2.5,1.91,3.726,1.15C1000,7487.09,998.869,7485.6,998.3,7484.95Zm-8.915-8.07a0.274,0.274,0,0,0-.067-0.17c-0.133-.17-0.3-0.38-0.433-0.59v-0.03c0.267,0.34.533,0.72,0.8,1.07A1.873,1.873,0,0,1,989.388,7476.88Zm3.426,0.21c-0.1.11-.166,0.24-0.266,0.35-0.1.07-.233,0.17-0.333,0.24,0.2-.21.4-0.45,0.6-0.66v0.07Z" transform="translate(-982 -7471.84)"/>
</svg>
